3_states
version=1
nRows=47
nColumns=17
inDegrees=yes

# SIMM Motion File Header:
name 3_states
datacolumns 17
datarows 47
otherdata 1
range 0.651513 0.807508
endheader
time	/jointset/r_shoulder/r_shoulder_elev/value	/jointset/r_shoulder/r_shoulder_elev/speed	/jointset/r_elbow/r_elbow_flex/value	/jointset/r_elbow/r_elbow_flex/speed	/forceset/TRIlong/activation	/forceset/TRIlong/fiber_length	/forceset/TRIlat/activation	/forceset/TRIlat/fiber_length	/forceset/TRImed/activation	/forceset/TRImed/fiber_length	/forceset/BIClong/activation	/forceset/BIClong/fiber_length	/forceset/BICshort/activation	/forceset/BICshort/fiber_length	/forceset/BRA/activation	/forceset/BRA/fiber_length
      0.651513	     -0.000158	     -0.019033	     48.870955	   -139.987363	      0.020000	      0.155780	      0.193668	      0.089003	      0.185044	      0.084085	      0.133704	      0.127700	      0.020000	      0.128277	      0.020000	      0.081952
      0.654794	     -0.000202	     -0.008337	     48.411564	   -140.029233	      0.020000	      0.155609	      0.190438	      0.088837	      0.181780	      0.083919	      0.132212	      0.128000	      0.020000	      0.128564	      0.020000	      0.082062
      0.658075	     -0.000211	      0.002628	     47.952036	   -140.072115	      0.020000	      0.155437	      0.187404	      0.088670	      0.178716	      0.083753	      0.130801	      0.128299	      0.020000	      0.128849	      0.020000	      0.082169
      0.660828	     -0.000194	      0.009000	     47.566374	   -140.098089	      0.020000	      0.155292	      0.184962	      0.088530	      0.176275	      0.083612	      0.129658	      0.128548	      0.020000	      0.129087	      0.020000	      0.082259
      0.663581	     -0.000160	      0.015270	     47.180646	   -140.122134	      0.020000	      0.155147	      0.182131	      0.088390	      0.173694	      0.083472	      0.128355	      0.128797	      0.020000	      0.129324	      0.020000	      0.082347
      0.666334	     -0.000110	      0.021285	     46.794852	   -140.145395	      0.020000	      0.155002	      0.179412	      0.088250	      0.171231	      0.083331	      0.127095	      0.129044	      0.020000	      0.129559	      0.020000	      0.082436
      0.670008	     -0.000017	      0.028337	     46.279966	   -140.173115	      0.020000	      0.154807	      0.176020	      0.088062	      0.168155	      0.083143	      0.125510	      0.129373	      0.020000	      0.129872	      0.020000	      0.082552
      0.673681	      0.000101	      0.035335	     45.764986	   -140.198739	      0.020000	      0.154613	      0.172623	      0.087874	      0.164626	      0.082954	      0.123780	      0.129699	      0.020000	      0.130183	      0.020000	      0.082667
      0.676942	      0.000227	      0.041245	     45.307773	   -140.221512	      0.020000	      0.154439	      0.169775	      0.087707	      0.161594	      0.082787	      0.122297	      0.129988	      0.020000	      0.130457	      0.020000	      0.082768
      0.680203	      0.000371	      0.047090	     44.850488	   -140.243511	      0.020000	      0.154266	      0.167104	      0.087538	      0.158759	      0.082619	      0.120894	      0.130274	      0.020000	      0.130729	      0.020000	      0.082868
      0.683326	      0.000524	      0.049299	     44.412536	   -140.251983	      0.020000	      0.154099	      0.164404	      0.087377	      0.156277	      0.082458	      0.119432	      0.130546	      0.020000	      0.130988	      0.020000	      0.082963
      0.687083	      0.000708	      0.048361	     43.885597	   -140.250937	      0.020000	      0.153898	      0.161178	      0.087182	      0.153530	      0.082262	      0.117652	      0.130874	      0.020000	      0.131298	      0.020000	      0.083076
      0.690116	      0.000852	      0.046833	     43.460271	   -140.247557	      0.020000	      0.153736	      0.158740	      0.087025	      0.151453	      0.082104	      0.116296	      0.131135	      0.020000	      0.131546	      0.020000	      0.083169
      0.694154	      0.001041	      0.046955	     42.893821	   -140.247849	      0.020000	      0.153519	      0.154983	      0.086815	      0.148513	      0.081892	      0.114266	      0.131483	      0.020000	      0.131876	      0.020000	      0.083292
      0.698193	      0.001240	      0.050998	     42.327340	   -140.261824	      0.020000	      0.153302	      0.151389	      0.086606	      0.145732	      0.081680	      0.112317	      0.131828	      0.020000	      0.132199	      0.020000	      0.083416
      0.702232	      0.001449	      0.051021	     41.760823	   -140.261668	      0.020000	      0.153084	      0.148168	      0.086396	      0.143001	      0.081467	      0.110426	      0.132170	      0.020000	      0.132518	      0.020000	      0.083537
      0.704847	      0.001576	      0.045277	     41.394126	   -140.243270	      0.020000	      0.152943	      0.146417	      0.086259	      0.141000	      0.081330	      0.109104	      0.132390	      0.020000	      0.132719	      0.020000	      0.083619
      0.707461	      0.001687	      0.039430	     41.027480	   -140.224336	      0.020000	      0.152801	      0.144754	      0.086121	      0.139096	      0.081192	      0.107841	      0.132609	      0.020000	      0.132920	      0.020000	      0.083699
      0.711321	      0.001821	      0.029826	     40.486255	   -140.191643	      0.020000	      0.152592	      0.142315	      0.085917	      0.136414	      0.080988	      0.106031	      0.132930	      0.020000	      0.133216	      0.020000	      0.083817
      0.715182	      0.001922	      0.023191	     39.945149	   -140.166029	      0.020000	      0.152383	      0.139239	      0.085713	      0.133669	      0.080784	      0.104033	      0.133250	      0.020000	      0.133508	      0.020000	      0.083935
      0.719042	      0.002001	      0.016625	     39.404134	   -140.140686	      0.020000	      0.152173	      0.136349	      0.085509	      0.131106	      0.080580	      0.102153	      0.133567	      0.020000	      0.133799	      0.020000	      0.084054
      0.722902	      0.002048	      0.007130	     38.863237	   -140.104509	      0.020000	      0.151963	      0.133661	      0.085305	      0.128513	      0.080375	      0.100183	      0.133881	      0.020000	      0.134086	      0.020000	      0.084173
      0.726762	      0.002060	     -0.000776	     38.322472	   -140.075560	      0.020000	      0.151752	      0.131158	      0.085101	      0.125829	      0.080170	      0.098064	      0.134195	      0.020000	      0.134371	      0.020000	      0.084293
      0.730025	      0.002055	     -0.001509	     37.865416	   -140.071292	      0.020000	      0.151574	      0.129177	      0.084927	      0.123706	      0.079997	      0.096381	      0.134458	      0.020000	      0.134610	      0.020000	      0.084393
      0.733288	      0.002052	     -0.000078	     37.408357	   -140.073668	      0.020000	      0.151395	      0.126988	      0.084753	      0.121359	      0.079823	      0.094606	      0.134719	      0.020000	      0.134847	      0.020000	      0.084495
      0.736551	      0.002061	      0.005482	     36.951271	   -140.089283	      0.020000	      0.151216	      0.124795	      0.084579	      0.119008	      0.079650	      0.092854	      0.134979	      0.020000	      0.135082	      0.020000	      0.084595
      0.739872	      0.002086	      0.009009	     36.486011	   -140.098578	      0.020000	      0.151034	      0.122695	      0.084402	      0.116756	      0.079473	      0.091169	      0.135241	      0.020000	      0.135320	      0.020000	      0.084699
      0.743193	      0.002120	      0.010763	     36.020734	   -140.100726	      0.020000	      0.150852	      0.120507	      0.084224	      0.114577	      0.079296	      0.089432	      0.135501	      0.020000	      0.135556	      0.020000	      0.084802
      0.746475	      0.002155	      0.010609	     35.561007	   -140.096813	      0.020000	      0.150671	      0.118269	      0.084049	      0.112492	      0.079121	      0.087675	      0.135756	      0.020000	      0.135787	      0.020000	      0.084904
      0.749756	      0.002189	      0.009936	     35.101296	   -140.090907	      0.020000	      0.150490	      0.116163	      0.083874	      0.110526	      0.078945	      0.086012	      0.136009	      0.020000	      0.136016	      0.020000	      0.085007
      0.752860	      0.002215	      0.005845	     34.666418	   -140.073076	      0.020000	      0.150319	      0.114235	      0.083707	      0.108663	      0.078779	      0.084394	      0.136247	      0.020000	      0.136231	      0.020000	      0.085104
      0.755965	      0.002226	      0.000980	     34.231604	   -140.052194	      0.020000	      0.150148	      0.112349	      0.083541	      0.106754	      0.078612	      0.082686	      0.136483	      0.020000	      0.136444	      0.020000	      0.085201
      0.759751	      0.002218	     -0.005338	     33.701321	   -140.025399	      0.020000	      0.149938	      0.110183	      0.083337	      0.104559	      0.078408	      0.080712	      0.136770	      0.020000	      0.136703	      0.020000	      0.085320
      0.763538	      0.002188	     -0.010356	     33.171139	   -140.000975	      0.020000	      0.149729	      0.107660	      0.083134	      0.102317	      0.078204	      0.078523	      0.137055	      0.020000	      0.136958	      0.020000	      0.085439
      0.766896	      0.002151	     -0.012234	     32.701093	   -139.989940	      0.020000	      0.149543	      0.105390	      0.082954	      0.100385	      0.078024	      0.076579	      0.137307	      0.020000	      0.137182	      0.020000	      0.085545
      0.769862	      0.002114	     -0.011313	     32.285809	   -139.989285	      0.020000	      0.149378	      0.103494	      0.082795	      0.098770	      0.077863	      0.074949	      0.137527	      0.020000	      0.137379	      0.020000	      0.085637
      0.772829	      0.002082	     -0.010196	     31.870521	   -139.988867	      0.020000	      0.149214	      0.101748	      0.082636	      0.097110	      0.077703	      0.073254	      0.137745	      0.020000	      0.137573	      0.020000	      0.085730
      0.775795	      0.002052	     -0.009094	     31.455236	   -139.988995	      0.020000	      0.149049	      0.100151	      0.082476	      0.095384	      0.077543	      0.071470	      0.137964	      0.020000	      0.137767	      0.020000	      0.085824
      0.778762	      0.002031	     -0.005539	     31.039934	   -139.997712	      0.020000	      0.148884	      0.098636	      0.082315	      0.093740	      0.077383	      0.069767	      0.138180	      0.020000	      0.137959	      0.020000	      0.085917
      0.783026	      0.002016	     -0.002738	     30.442952	   -140.003230	      0.020000	      0.148647	      0.096502	      0.082084	      0.091556	      0.077152	      0.067385	      0.138488	      0.020000	      0.138232	      0.020000	      0.086050
      0.786674	      0.002008	     -0.002519	     29.932299	   -140.001787	      0.020000	      0.148444	      0.094640	      0.081886	      0.089870	      0.076953	      0.065341	      0.138748	      0.020000	      0.138463	      0.020000	      0.086165
      0.790321	      0.001997	     -0.003026	     29.421666	   -139.996450	      0.020000	      0.148240	      0.092882	      0.081687	      0.088279	      0.076754	      0.063400	      0.139005	      0.020000	      0.138691	      0.020000	      0.086279
      0.792806	      0.001986	     -0.006034	     29.073792	   -139.983196	      0.020000	      0.148102	      0.091676	      0.081552	      0.087093	      0.076619	      0.061964	      0.139179	      0.020000	      0.138845	      0.020000	      0.086359
      0.795291	      0.001970	     -0.006821	     28.725945	   -139.976561	      0.020000	      0.147963	      0.090466	      0.081416	      0.085838	      0.076483	      0.060449	      0.139353	      0.020000	      0.138999	      0.020000	      0.086437
      0.799747	      0.001942	     -0.005987	     28.102215	   -139.973116	      0.020000	      0.147714	      0.088421	      0.081173	      0.083714	      0.076240	      0.057881	      0.139663	      0.020000	      0.139271	      0.020000	      0.086578
      0.803628	      0.001917	     -0.008601	     27.559027	   -139.961459	      0.020000	      0.147497	      0.086971	      0.080961	      0.082238	      0.076028	      0.055790	      0.139928	      0.020000	      0.139505	      0.020000	      0.086701
      0.807508	      0.001873	     -0.013637	     27.015911	   -139.942046	      0.020000	      0.147281	      0.085753	      0.080747	      0.081018	      0.075814	      0.053825	      0.140188	      0.020000	      0.139736	      0.020000	      0.086824
